<svg xmlns="http://www.w3.org/2000/svg" width="120" height="64" xml:space="preserve">
  <path fill="#A8841D" d="M23.355 23.129 12.032 21.29 4.774 31.548h28.258l-9.677-8.419zm-1.161 19.452-16.258.581V31.548l26.129 6.29-9.871 4.743z"/>
  <path fill="#A8841D" d="M5.935 31.548h26.129v6.484H5.935z"/>
  <path fill="#FFF" d="M15.736 35.015h3.968v6.387h-3.968z"/>
  <path fill="#FCFCFC" d="M7.645 35.387h5.806v3.581H7.645z"/>
  <text transform="matrix(.9 0 0 1 35.838 35.94)"><tspan x="0" y="0" font-family="&apos;Roboto-Bold&apos;" font-size="12">H</tspan><tspan x="8.584" y="0" font-family="&apos;Roboto-Bold&apos;" font-size="12">APPY HOME</tspan></text>
  <path fill="#FFF" d="m26.642 38.619-2.319.865v-4.468l2.174-.264.145 3.867zm3.307-3.034-1.981.495v-1.742l1.839-.387.142 1.634z"/>
</svg>
