<svg xmlns="http://www.w3.org/2000/svg" width="120" height="64" xml:space="preserve">
  <path fill="#0990D3" d="M30.954 20.261c.126-.592-.474-1.056-1.028-.813a6.099 6.099 0 0 1-2.412.534c-1.8.012-2.184-.848-4.256-1.014-2.332-.187-2.535 1.002-4.935.677-1.981-.268-2.487-1.05-4.258-.871-1.657.167-1.9.92-3.489.879-1.564-.04-1.634-.778-3.092-.783-1.733-.005-2.225 1.036-3.774.968a3.665 3.665 0 0 1-1.416-.363c-.52-.246-1.108.146-1.054.719l.086.918c.133.194.363.474.726.663 1.16.604 2.189-.49 3.981-.68 2.085-.221 2.306 1.089 4.452.871 1.662-.169 1.651-.967 3.45-1.135 1.382-.13 1.507.331 3.711.458 1.242.072 1.346-.066 3.387-.097 1.851-.028 2.777-.042 3.774.097 2.65.368 3.865 1.315 5.212.579a2.66 2.66 0 0 0 .718-.58l.217-1.027zm0 4.634c.126-.592-.474-1.056-1.028-.813a6.099 6.099 0 0 1-2.412.534c-1.8.012-2.184-.848-4.256-1.014-2.332-.187-2.535 1.002-4.935.677-1.981-.268-2.487-1.05-4.258-.871-1.657.167-1.9.92-3.489.879-1.564-.04-1.634-.778-3.092-.783-1.733-.005-2.225 1.036-3.774.968a3.665 3.665 0 0 1-1.416-.363c-.52-.246-1.108.146-1.054.719l.086.918c.133.194.363.474.726.663 1.16.604 2.189-.49 3.981-.68 2.085-.221 2.306 1.089 4.452.871 1.662-.169 1.651-.967 3.45-1.135 1.382-.13 1.507.331 3.711.458 1.242.072 1.346-.066 3.387-.097 1.851-.028 2.777-.042 3.774.097 2.65.368 3.865 1.315 5.212.579a2.66 2.66 0 0 0 .718-.58l.217-1.027zm0 4.633c.126-.592-.474-1.056-1.028-.813a6.099 6.099 0 0 1-2.412.534c-1.8.012-2.184-.848-4.256-1.014-2.332-.187-2.535 1.002-4.935.677-1.981-.268-2.487-1.05-4.258-.871-1.657.167-1.9.92-3.489.879-1.564-.04-1.634-.778-3.092-.783-1.733-.005-2.225 1.036-3.774.968a3.665 3.665 0 0 1-1.416-.363c-.52-.246-1.108.146-1.054.719l.086.918c.133.194.363.474.726.663 1.16.604 2.189-.49 3.981-.68 2.085-.221 2.306 1.089 4.452.871 1.662-.169 1.651-.967 3.45-1.135 1.382-.13 1.507.331 3.711.458 1.242.072 1.346-.066 3.387-.097 1.851-.028 2.777-.042 3.774.097 2.65.368 3.865 1.315 5.212.579a2.66 2.66 0 0 0 .718-.58l.217-1.027zm0 4.69c.126-.592-.474-1.056-1.028-.813a6.099 6.099 0 0 1-2.412.534c-1.8.012-2.184-.848-4.256-1.014-2.332-.187-2.535 1.002-4.935.677-1.981-.268-2.487-1.05-4.258-.871-1.657.167-1.9.92-3.489.879-1.564-.04-1.634-.778-3.092-.783-1.733-.005-2.225 1.036-3.774.968a3.665 3.665 0 0 1-1.416-.363c-.52-.246-1.108.146-1.054.719l.086.918c.133.194.363.474.726.663 1.16.604 2.189-.49 3.981-.68 2.085-.221 2.306 1.089 4.452.871 1.662-.169 1.651-.967 3.45-1.135 1.382-.13 1.507.331 3.711.458 1.242.072 1.346-.066 3.387-.097 1.851-.028 2.777-.042 3.774.097 2.65.368 3.865 1.315 5.212.579a2.66 2.66 0 0 0 .718-.58l.217-1.027zm0 4.685c.126-.592-.474-1.056-1.028-.813a6.099 6.099 0 0 1-2.412.534c-1.8.012-2.184-.848-4.256-1.014-2.332-.187-2.535 1.002-4.935.677-1.981-.268-2.487-1.05-4.258-.871-1.657.167-1.9.92-3.489.879-1.564-.04-1.634-.778-3.092-.783-1.733-.005-2.225 1.036-3.774.968a3.665 3.665 0 0 1-1.416-.363c-.52-.246-1.108.146-1.054.719l.086.918c.133.194.363.474.726.663 1.16.604 2.189-.49 3.981-.68 2.085-.221 2.306 1.089 4.452.871 1.662-.169 1.651-.967 3.45-1.135 1.382-.13 1.507.331 3.711.458 1.242.072 1.346-.066 3.387-.097 1.851-.028 2.777-.042 3.774.097 2.65.368 3.865 1.315 5.212.579a2.66 2.66 0 0 0 .718-.58l.217-1.027zm0 4.684c.126-.592-.474-1.056-1.028-.813a6.099 6.099 0 0 1-2.412.534c-1.8.012-2.184-.848-4.256-1.014-2.332-.187-2.535 1.002-4.935.677-1.981-.268-2.487-1.05-4.258-.871-1.657.167-1.9.92-3.489.879-1.564-.04-1.634-.778-3.092-.783-1.733-.005-2.225 1.036-3.774.968a3.665 3.665 0 0 1-1.416-.363c-.52-.246-1.108.146-1.054.719l.086.918c.133.194.363.474.726.663 1.16.604 2.189-.49 3.981-.68 2.085-.221 2.306 1.089 4.452.871 1.662-.169 1.651-.967 3.45-1.135 1.382-.13 1.507.331 3.711.458 1.242.072 1.346-.066 3.387-.097 1.851-.028 2.777-.042 3.774.097 2.65.368 3.865 1.315 5.212.579a2.66 2.66 0 0 0 .718-.58l.217-1.027z"/>
  <path fill="none" d="M34.71 19.613h73.903v23.935H34.71z"/>
  <text transform="translate(34.71 31.172)"><tspan x="0" y="0" font-family="&apos;SegoePrint-Bold&apos;" font-size="14">Sentinal</tspan><tspan x="0" y="12" font-family="&apos;SegoePrint-Bold&apos;" font-size="14">C</tspan><tspan x="9.488" y="12" font-family="&apos;SegoePrint-Bold&apos;" font-size="14">onsulting</tspan></text>
</svg>
