<?xml version="1.0" encoding="utf-8"?>
<!-- Generator: Adobe Illustrator 25.2.1, SVG Export Plug-In . SVG Version: 6.00 Build 0)  -->
<svg version="1.1" xmlns="http://www.w3.org/2000/svg" xmlns:xlink="http://www.w3.org/1999/xlink" x="0px" y="0px" width="120px"
	 height="64px" viewBox="0 0 120 64" enable-background="new 0 0 120 64" xml:space="preserve">
<g id="Layer_1" display="none">
	<image display="inline" overflow="visible" width="120" height="64" xlink:href="../partners/partners-1.png" >
	</image>
	<text transform="matrix(0.9281 0 0 1 45.7095 28.2583)" display="inline"><tspan x="0" y="0" font-family="'Arial-BoldMT'" font-size="14px">InDepth</tspan><tspan x="0" y="16.8" font-family="'Arial-BoldMT'" font-size="14px">Consulting</tspan></text>
</g>
<g id="Layer_2">
	<rect x="8.871" y="15.129" width="4.129" height="34.581"/>
	<rect x="40.032" y="15.065" width="4.129" height="34.581"/>
	<rect x="24.452" y="-1.452" transform="matrix(6.123234e-17 -1 1 6.123234e-17 10.3226 42.7097)" width="4.129" height="35.29"/>
	<rect x="24.452" y="30.484" transform="matrix(6.123234e-17 -1 1 6.123234e-17 -21.6129 74.6452)" width="4.129" height="35.29"/>
	<rect x="18.887" y="23.484" transform="matrix(6.123234e-17 -1 1 6.123234e-17 -10.4839 52.3871)" width="4.129" height="15.903"/>
	<rect x="24.774" y="32.226" width="4.129" height="15.903"/>
	<rect x="31.514" y="12.991" transform="matrix(-0.7071 -0.7071 0.7071 -0.7071 41.0235 65.8668)" width="5.278" height="22.892"/>
	<text transform="matrix(0.9281 0 0 1 46.057 28.1151)"><tspan x="0" y="0" font-family="'Arial-BoldMT'" font-size="14px">InDepth</tspan><tspan x="0" y="16.8" font-family="'Arial-BoldMT'" font-size="14px">Consulting</tspan></text>
</g>
</svg>
