<?xml version="1.0" encoding="utf-8"?>
<!-- Generator: Adobe Illustrator 25.2.1, SVG Export Plug-In . SVG Version: 6.00 Build 0)  -->
<svg version="1.1" xmlns="http://www.w3.org/2000/svg" xmlns:xlink="http://www.w3.org/1999/xlink" x="0px" y="0px" width="120px"
	 height="64px" viewBox="0 0 120 64" enable-background="new 0 0 120 64" xml:space="preserve">
<g id="Layer_1" display="none">
	<image display="inline" overflow="visible" width="120" height="64" xlink:href="../partners/partners-3.png" >
	</image>
</g>
<g id="Layer_2">
	<path fill="#0990D3" d="M30.954,20.261c0.126-0.592-0.474-1.056-1.028-0.813c-0.683,0.299-1.497,0.528-2.412,0.534
		c-1.8,0.012-2.184-0.848-4.256-1.014c-2.332-0.187-2.535,1.002-4.935,0.677c-1.981-0.268-2.487-1.05-4.258-0.871
		c-1.657,0.167-1.9,0.92-3.489,0.879c-1.564-0.04-1.634-0.778-3.092-0.783c-1.733-0.005-2.225,1.036-3.774,0.968
		c-0.526-0.023-1.001-0.166-1.416-0.363c-0.52-0.246-1.108,0.146-1.054,0.719l0.086,0.918c0.133,0.194,0.363,0.474,0.726,0.663
		c1.16,0.604,2.189-0.49,3.981-0.68c2.085-0.221,2.306,1.089,4.452,0.871c1.662-0.169,1.651-0.967,3.45-1.135
		c1.382-0.13,1.507,0.331,3.711,0.458c1.242,0.072,1.346-0.066,3.387-0.097c1.851-0.028,2.777-0.042,3.774,0.097
		c2.65,0.368,3.865,1.315,5.212,0.579c0.338-0.185,0.573-0.415,0.718-0.58L30.954,20.261z"/>
	<path fill="#0990D3" d="M30.954,24.895c0.126-0.592-0.474-1.056-1.028-0.813c-0.683,0.299-1.497,0.528-2.412,0.534
		c-1.8,0.012-2.184-0.848-4.256-1.014c-2.332-0.187-2.535,1.002-4.935,0.677c-1.981-0.268-2.487-1.05-4.258-0.871
		c-1.657,0.167-1.9,0.92-3.489,0.879c-1.564-0.04-1.634-0.778-3.092-0.783c-1.733-0.005-2.225,1.036-3.774,0.968
		c-0.526-0.023-1.001-0.166-1.416-0.363c-0.52-0.246-1.108,0.146-1.054,0.719l0.086,0.918c0.133,0.194,0.363,0.474,0.726,0.663
		c1.16,0.604,2.189-0.49,3.981-0.68c2.085-0.221,2.306,1.089,4.452,0.871c1.662-0.169,1.651-0.967,3.45-1.135
		c1.382-0.13,1.507,0.331,3.711,0.458c1.242,0.072,1.346-0.066,3.387-0.097c1.851-0.028,2.777-0.042,3.774,0.097
		c2.65,0.368,3.865,1.315,5.212,0.579c0.338-0.185,0.573-0.415,0.718-0.58L30.954,24.895z"/>
	<path fill="#0990D3" d="M30.954,29.528c0.126-0.592-0.474-1.056-1.028-0.813c-0.683,0.299-1.497,0.528-2.412,0.534
		c-1.8,0.012-2.184-0.848-4.256-1.014c-2.332-0.187-2.535,1.002-4.935,0.677c-1.981-0.268-2.487-1.05-4.258-0.871
		c-1.657,0.167-1.9,0.92-3.489,0.879c-1.564-0.04-1.634-0.778-3.092-0.783c-1.733-0.005-2.225,1.036-3.774,0.968
		c-0.526-0.023-1.001-0.166-1.416-0.363c-0.52-0.246-1.108,0.146-1.054,0.719l0.086,0.918c0.133,0.194,0.363,0.474,0.726,0.663
		c1.16,0.604,2.189-0.49,3.981-0.68c2.085-0.221,2.306,1.089,4.452,0.871c1.662-0.169,1.651-0.967,3.45-1.135
		c1.382-0.13,1.507,0.331,3.711,0.458c1.242,0.072,1.346-0.066,3.387-0.097c1.851-0.028,2.777-0.042,3.774,0.097
		c2.65,0.368,3.865,1.315,5.212,0.579c0.338-0.185,0.573-0.415,0.718-0.58L30.954,29.528z"/>
	<path fill="#0990D3" d="M30.954,34.218c0.126-0.592-0.474-1.056-1.028-0.813c-0.683,0.299-1.497,0.528-2.412,0.534
		c-1.8,0.012-2.184-0.848-4.256-1.014c-2.332-0.187-2.535,1.002-4.935,0.677c-1.981-0.268-2.487-1.05-4.258-0.871
		c-1.657,0.167-1.9,0.92-3.489,0.879c-1.564-0.04-1.634-0.778-3.092-0.783c-1.733-0.005-2.225,1.036-3.774,0.968
		c-0.526-0.023-1.001-0.166-1.416-0.363c-0.52-0.246-1.108,0.146-1.054,0.719l0.086,0.918c0.133,0.194,0.363,0.474,0.726,0.663
		c1.16,0.604,2.189-0.49,3.981-0.68c2.085-0.221,2.306,1.089,4.452,0.871c1.662-0.169,1.651-0.967,3.45-1.135
		c1.382-0.13,1.507,0.331,3.711,0.458c1.242,0.072,1.346-0.066,3.387-0.097c1.851-0.028,2.777-0.042,3.774,0.097
		c2.65,0.368,3.865,1.315,5.212,0.579c0.338-0.185,0.573-0.415,0.718-0.58L30.954,34.218z"/>
	<path fill="#0990D3" d="M30.954,38.903c0.126-0.592-0.474-1.056-1.028-0.813c-0.683,0.299-1.497,0.528-2.412,0.534
		c-1.8,0.012-2.184-0.848-4.256-1.014c-2.332-0.187-2.535,1.002-4.935,0.677c-1.981-0.268-2.487-1.05-4.258-0.871
		c-1.657,0.167-1.9,0.92-3.489,0.879c-1.564-0.04-1.634-0.778-3.092-0.783c-1.733-0.005-2.225,1.036-3.774,0.968
		c-0.526-0.023-1.001-0.166-1.416-0.363c-0.52-0.246-1.108,0.146-1.054,0.719l0.086,0.918c0.133,0.194,0.363,0.474,0.726,0.663
		c1.16,0.604,2.189-0.49,3.981-0.68c2.085-0.221,2.306,1.089,4.452,0.871c1.662-0.169,1.651-0.967,3.45-1.135
		c1.382-0.13,1.507,0.331,3.711,0.458c1.242,0.072,1.346-0.066,3.387-0.097c1.851-0.028,2.777-0.042,3.774,0.097
		c2.65,0.368,3.865,1.315,5.212,0.579c0.338-0.185,0.573-0.415,0.718-0.58L30.954,38.903z"/>
	<path fill="#0990D3" d="M30.954,43.587c0.126-0.592-0.474-1.056-1.028-0.813c-0.683,0.299-1.497,0.528-2.412,0.534
		c-1.8,0.012-2.184-0.848-4.256-1.014c-2.332-0.187-2.535,1.002-4.935,0.677c-1.981-0.268-2.487-1.05-4.258-0.871
		c-1.657,0.167-1.9,0.92-3.489,0.879c-1.564-0.04-1.634-0.778-3.092-0.783c-1.733-0.005-2.225,1.036-3.774,0.968
		c-0.526-0.023-1.001-0.166-1.416-0.363c-0.52-0.246-1.108,0.146-1.054,0.719l0.086,0.918c0.133,0.194,0.363,0.474,0.726,0.663
		c1.16,0.604,2.189-0.49,3.981-0.68c2.085-0.221,2.306,1.089,4.452,0.871c1.662-0.169,1.651-0.967,3.45-1.135
		c1.382-0.13,1.507,0.331,3.711,0.458c1.242,0.072,1.346-0.066,3.387-0.097c1.851-0.028,2.777-0.042,3.774,0.097
		c2.65,0.368,3.865,1.315,5.212,0.579c0.338-0.185,0.573-0.415,0.718-0.58L30.954,43.587z"/>
	<rect x="34.71" y="19.613" fill="none" width="73.903" height="23.935"/>
	<text transform="matrix(1 0 0 1 34.7095 31.1724)"><tspan x="0" y="0" font-family="'SegoePrint-Bold'" font-size="14px">Sentinal</tspan><tspan x="0" y="12" font-family="'SegoePrint-Bold'" font-size="14px">C</tspan><tspan x="9.488" y="12" font-family="'SegoePrint-Bold'" font-size="14px">onsulting</tspan></text>
</g>
</svg>
