<?xml version="1.0" encoding="utf-8"?>
<!-- Generator: Adobe Illustrator 25.2.1, SVG Export Plug-In . SVG Version: 6.00 Build 0)  -->
<svg version="1.1" xmlns="http://www.w3.org/2000/svg" xmlns:xlink="http://www.w3.org/1999/xlink" x="0px" y="0px" width="120px"
	 height="64px" viewBox="0 0 120 64" enable-background="new 0 0 120 64" xml:space="preserve">
<g id="Layer_1" display="none">
	<image display="inline" overflow="visible" width="120" height="64" xlink:href="../partners/partners-4.png" >
	</image>
	<rect x="8.355" y="35.015" display="inline" fill="#FFFFFF" width="5.419" height="3.985"/>
	<rect x="19.703" y="20.71" display="inline" fill="#A8841D" width="1.038" height="2.419"/>
</g>
<g id="Layer_2">
	<path fill="#A8841D" d="M23.355,23.129c-3.774-0.613-7.548-1.226-11.323-1.839c-2.419,3.419-4.839,6.839-7.258,10.258h28.258
		C29.806,28.742,26.581,25.935,23.355,23.129z"/>
	<path fill="#A8841D" d="M22.194,42.581c-5.419,0.194-10.839,0.387-16.258,0.581V31.548c8.71,2.097,17.419,4.194,26.129,6.29
		C28.774,39.419,25.484,41,22.194,42.581z"/>
	<path fill="#070707" d="M19,37.355"/>
	<rect x="5.935" y="31.548" fill="#A8841D" width="26.129" height="6.484"/>
	<rect x="15.736" y="35.015" fill="#FFFFFF" width="3.968" height="6.387"/>
	<rect x="7.645" y="35.387" fill="#FCFCFC" width="5.806" height="3.581"/>
	<path fill="#FFFFFF" d="M37.194,45.871"/>
	<text transform="matrix(0.9 0 0 1 35.8384 35.9395)"><tspan x="0" y="0" font-family="'Roboto-Bold'" font-size="12px">H</tspan><tspan x="8.584" y="0" font-family="'Roboto-Bold'" font-size="12px">APPY HOME</tspan></text>
	<path fill="#FFFFFF" d="M26.642,38.619c-0.773,0.288-1.546,0.577-2.319,0.865c0-1.489,0-2.979,0-4.468
		c0.725-0.088,1.449-0.176,2.174-0.264C26.545,36.04,26.593,37.33,26.642,38.619z"/>
	<path fill="#FFFFFF" d="M34,43.839"/>
	<path fill="#FFFFFF" d="M29.949,35.585c-0.66,0.165-1.321,0.33-1.981,0.495c0-0.581,0-1.161,0-1.742
		c0.613-0.129,1.226-0.258,1.839-0.387C29.854,34.496,29.901,35.04,29.949,35.585z"/>
</g>
</svg>
