<svg width="16" height="17" fill="none" xmlns="http://www.w3.org/2000/svg">
  <path fill-rule="evenodd" clip-rule="evenodd" d="M8 5.667a1.333 1.333 0 1 0 0 2.667 1.333 1.333 0 0 0 0-2.667ZM5.335 7.001a2.667 2.667 0 1 1 5.333 0 2.667 2.667 0 0 1-5.333 0Z" fill="#787A80"/>
  <path fill-rule="evenodd" clip-rule="evenodd" d="M8 2.667c-2.412 0-4.333 1.891-4.333 4.18 0 1.866 1.122 3.75 2.347 5.232a18.612 18.612 0 0 0 1.987 2.048 18.61 18.61 0 0 0 1.986-2.048c1.226-1.482 2.347-3.366 2.347-5.232 0-2.289-1.92-4.18-4.333-4.18Zm0 12.334-.412.523-.002-.001-.004-.003-.013-.01a8.622 8.622 0 0 1-.214-.178 19.944 19.944 0 0 1-2.368-2.402c-1.274-1.542-2.653-3.734-2.653-6.083 0-3.064 2.557-5.513 5.667-5.513s5.666 2.449 5.666 5.513c0 2.349-1.378 4.541-2.653 6.082a19.948 19.948 0 0 1-2.367 2.403 11.273 11.273 0 0 1-.215.177l-.013.01-.004.004h-.001l-.413-.522Zm0 0 .413.523a.667.667 0 0 1-.825 0L8 15.001Z" fill="#787A80"/>
</svg>
